<?xml version="1.0" encoding="UTF-8"?>
<svg width="281px" height="33px" viewBox="0 0 281 33" version="1.1" xmlns="http://www.w3.org/2000/svg" xmlns:xlink="http://www.w3.org/1999/xlink">
    <!-- Generator: Sketch 53.2 (72643) - https://sketchapp.com -->
    <title>Group 6</title>
    <desc>Created with Sketch.</desc>
    <defs>
        <polygon id="path-1" points="6.14332738e-06 0.522 280.205 0.522 280.205 32.9996 6.14332738e-06 32.9996"></polygon>
    </defs>
    <g id="Symbols" stroke="none" stroke-width="1" fill="none" fill-rule="evenodd">
        <g id="joensuu-logo-valkea" transform="translate(0.000000, -1.000000)">
            <g id="Group-6">
                <g id="Group-3" transform="translate(0.000000, 0.478100)">
                    <mask id="mask-2" fill="white">
                        <use xlink:href="#path-1"></use>
                    </mask>
                    <g id="Clip-2"></g>
                    <path d="M280.2055,19.5916 L280.2055,1.1176 L273.3085,1.1176 L273.3085,18.7476 C273.3085,24.4586 270.2735,27.6866 264.7555,27.6866 C259.2925,27.6866 256.2575,24.4586 256.2575,18.7476 L256.2575,1.1176 L249.3055,1.1176 L249.3055,19.5916 C249.3055,28.7296 256.4235,32.9996 264.7555,32.9996 C273.0875,32.9996 280.2055,28.7296 280.2055,19.5916 L280.2055,19.5916 Z M236.0085,19.5916 L236.0085,1.1176 L229.1105,1.1176 L229.1105,18.7476 C229.1105,24.4586 226.0755,27.6866 220.5585,27.6866 C215.0955,27.6866 212.0605,24.4586 212.0605,18.7476 L212.0605,1.1176 L205.1085,1.1176 L205.1085,19.5916 C205.1085,28.7296 212.2265,32.9996 220.5585,32.9996 C228.8905,32.9996 236.0085,28.7296 236.0085,19.5916 L236.0085,19.5916 Z M171.1175,9.6596 C171.1175,7.0766 173.8765,5.5876 177.7395,5.5876 C182.6505,5.5876 185.9055,7.7226 187.7265,10.5536 L192.4165,6.4816 C189.3815,3.0046 184.4705,0.5216 177.7395,0.5216 C169.5725,0.5216 164.1655,4.3956 164.1655,10.0566 C164.1655,15.2716 168.3585,17.7046 173.6555,18.6976 L181.4915,20.1376 C184.4155,20.7336 186.5675,21.4786 186.5675,23.7626 C186.5675,26.4946 183.2565,27.9346 178.8425,27.9346 C173.9865,27.9346 169.2965,25.9486 166.7585,22.1246 L162.3995,26.6436 C165.6555,30.6166 171.6145,32.9996 178.8425,32.9996 C187.0095,32.9996 193.5205,29.5736 193.5205,23.5146 C193.5205,18.2506 189.6575,15.7676 183.1465,14.5266 L175.9185,13.1356 C173.1595,12.5896 171.1175,11.8946 171.1175,9.6596 L171.1175,9.6596 Z M145.1285,32.4036 L151.2535,32.4036 L151.2535,1.1176 L144.8525,1.1176 L144.8525,22.5716 L128.1885,1.1176 L120.4085,1.1176 L120.4085,32.4036 L126.7545,32.4036 L126.7545,9.2126 L145.1285,32.4036 Z M79.6325,32.4036 L107.7185,32.4036 L107.7185,27.0906 L86.4195,27.0906 L86.4195,18.9956 L102.0895,18.9956 L102.0895,13.7316 L86.4195,13.7316 L86.4195,6.4316 L107.2215,6.4316 L107.2215,1.1176 L79.6325,1.1176 L79.6325,32.4036 Z M26.6615,21.0816 L26.6615,1.1176 L19.6545,1.1176 L19.6545,20.6846 C19.6545,25.0546 17.7785,27.6366 13.4185,27.6366 C8.9995,27.6366 6.7845,24.7486 7.0355,20.0596 L1.0295,20.0596 L0.0105,20.2376 C-0.2655,28.1336 4.9215,32.9996 13.3635,32.9996 C20.9785,32.9996 26.6615,28.8286 26.6615,21.0816 L26.6615,21.0816 Z" id="Fill-1" fill="#FEFEFE" mask="url(#mask-2)"></path>
                </g>
                <path d="M61.5138,16.9849 C61.5138,22.1039 57.3638,26.2539 52.2448,26.2539 C47.1258,26.2539 42.9758,22.1039 42.9758,16.9849 C42.9758,11.8659 47.1258,7.7159 52.2448,7.7159 C57.3638,7.7159 61.5138,11.8659 61.5138,16.9849" id="Fill-4" fill="#FEFEFE"></path>
            </g>
        </g>
    </g>
</svg>