<?xml version="1.0" encoding="utf-8"?>
<!-- Generator: Adobe Illustrator 22.1.0, SVG Export Plug-In . SVG Version: 6.00 Build 0)  -->
<svg version="1.1" id="Layer_1" xmlns="http://www.w3.org/2000/svg" xmlns:xlink="http://www.w3.org/1999/xlink" x="0px" y="0px"
	 width="885.5px" height="292.2px" viewBox="0 0 885.5 292.2" enable-background="new 0 0 885.5 292.2" xml:space="preserve">
<g>
	<g>
		<linearGradient id="SVGID_1_" gradientUnits="userSpaceOnUse" x1="37.0103" y1="155.4648" x2="270.5302" y2="155.4648">
			<stop  offset="0" style="stop-color:#F9575D"/>
			<stop  offset="0.1593" style="stop-color:#F5565E"/>
			<stop  offset="0.3265" style="stop-color:#E85260"/>
			<stop  offset="0.4972" style="stop-color:#D34B65"/>
			<stop  offset="0.6705" style="stop-color:#B6426A"/>
			<stop  offset="0.844" style="stop-color:#903772"/>
			<stop  offset="1" style="stop-color:#682A7A"/>
		</linearGradient>
		<path fill="url(#SVGID_1_)" d="M153.6,270.5c-28.3,0-55.3-10.1-76.8-29c-23.4-20.6-37.5-49-39.5-80.1c-0.2-3.1-0.3-6.2-0.2-9.2
			l14,0.2c0,2.7,0,5.4,0.2,8.1C53,187.8,65.4,212.9,86,231c20.6,18.1,47.1,27.1,74.5,25.3c56.5-3.7,99.5-52.7,95.8-109.3
			c-2.9-44.7-34-82-77.4-93l3.4-13.6c49.3,12.4,84.7,54.8,88,105.6c4.2,64.2-44.6,119.9-108.9,124.1
			C158.8,270.4,156.2,270.5,153.6,270.5z"/>
	</g>
	<g>
		<linearGradient id="SVGID_2_" gradientUnits="userSpaceOnUse" x1="91.3363" y1="151.5894" x2="239.4611" y2="151.5894">
			<stop  offset="0" style="stop-color:#F9575D"/>
			<stop  offset="0.1593" style="stop-color:#F5565E"/>
			<stop  offset="0.3265" style="stop-color:#E85260"/>
			<stop  offset="0.4972" style="stop-color:#D34B65"/>
			<stop  offset="0.6705" style="stop-color:#B6426A"/>
			<stop  offset="0.844" style="stop-color:#903772"/>
			<stop  offset="1" style="stop-color:#682A7A"/>
		</linearGradient>
		<path fill="url(#SVGID_2_)" d="M154.1,236.8c-14.6,0-29.1-3.8-42.1-11.2c-7.7-4.4-14.7-10-20.6-16.5l10.3-9.5
			c5,5.4,10.8,10.1,17.3,13.8c16.5,9.4,35.7,11.9,54.1,6.8c18.4-5,33.7-16.9,43.1-33.4c19.5-34.1,7.5-77.7-26.6-97.2
			c-23.8-13.6-53.7-12.2-76.2,3.5l-8-11.5c26.9-18.8,62.7-20.4,91.1-4.2c40.8,23.3,55.1,75.5,31.8,116.3c-11.3,19.8-29.6,34-51.6,40
			C169.2,235.8,161.6,236.8,154.1,236.8z"/>
	</g>
	<g>
		<linearGradient id="SVGID_3_" gradientUnits="userSpaceOnUse" x1="116.754" y1="151.776" x2="205.4487" y2="151.776">
			<stop  offset="0" style="stop-color:#F9575D"/>
			<stop  offset="0.1593" style="stop-color:#F5565E"/>
			<stop  offset="0.3265" style="stop-color:#E85260"/>
			<stop  offset="0.4972" style="stop-color:#D34B65"/>
			<stop  offset="0.6705" style="stop-color:#B6426A"/>
			<stop  offset="0.844" style="stop-color:#903772"/>
			<stop  offset="1" style="stop-color:#682A7A"/>
		</linearGradient>
		<path fill="url(#SVGID_3_)" d="M153,204.1c-7.8,0-15.6-1.7-23-5.4c-4.9-2.4-9.4-5.5-13.3-9.3l9.7-10.1c2.8,2.8,6.1,5,9.7,6.8
			c9.2,4.5,19.6,5.2,29.2,1.9c9.7-3.3,17.5-10.2,22-19.3c4.5-9.2,5.2-19.6,1.9-29.2c-3.3-9.7-10.2-17.5-19.3-22
			c-13.2-6.5-29.2-4.8-40.8,4.4l-8.7-11c15.8-12.5,37.6-14.8,55.6-5.9c12.5,6.2,21.9,16.9,26.4,30.1c4.5,13.2,3.6,27.4-2.6,39.9
			C190.9,193.3,172.3,204.1,153,204.1z"/>
	</g>
	<g>
		<linearGradient id="SVGID_4_" gradientUnits="userSpaceOnUse" x1="0" y1="146.0886" x2="306.3261" y2="146.0886">
			<stop  offset="0" style="stop-color:#F9575D"/>
			<stop  offset="0.1593" style="stop-color:#F5565E"/>
			<stop  offset="0.3265" style="stop-color:#E85260"/>
			<stop  offset="0.4972" style="stop-color:#D34B65"/>
			<stop  offset="0.6705" style="stop-color:#B6426A"/>
			<stop  offset="0.844" style="stop-color:#903772"/>
			<stop  offset="1" style="stop-color:#682A7A"/>
		</linearGradient>
		<path fill="url(#SVGID_4_)" d="M88.8,292.2c-29.2-13.5-53-35.5-69-63.6c-16.3-28.7-22.7-61.2-18.7-94
			C11.4,50.8,87.9-9.1,171.7,1.1c83.8,10.2,143.7,86.7,133.5,170.5c-0.5,4-1.1,8-1.9,12l-13.7-2.8c0.7-3.6,1.3-7.2,1.8-10.9
			C300.6,93.8,246.2,24.3,170,15C93.8,5.7,24.3,60.2,15,136.3c-3.6,29.8,2.3,59.3,17,85.4c14.5,25.5,36.1,45.5,62.6,57.8L88.8,292.2
			z"/>
	</g>
</g>
<path fill="#FFFFFF" d="M502.7,200.1c0,0,0.2,0,0.2-13.3v-55.9l-27.5,69.2H460l-26.2-69.2l-0.1,69.2c-19.2,0-17.8,0-17.8,0l0-89.3
	l18,0c3.5,0,6.7,2.1,8,5.4c6.6,15.9,25.6,64.4,26.3,66c0.6-1.6,20-50.2,26.7-66c1.4-3.2,4.5-5.3,8-5.3l17.9,0v89.3H502.7z"/>
<path fill="#FFFFFF" d="M563.9,199.5c-4.1,0-6.9-3.1-6.9-7l0.2-75.8c0-3.8,3.1-6.9,7-6.9h49.7c3.8,0,6.9,3.1,7,6.9
	c0,4.3,0.1,6.3-0.1,6.6h-44.2v26h31.2v12.2l-31.2,0.4v24.7h44.2v5.9c0,3.8-3.1,7-7,7C598.6,199.5,564.1,199.5,563.9,199.5z"/>
<g>
	<path fill="#FFFFFF" d="M673.1,199.5h-16.4v-89.6h9.4c3.8,0,7,3.1,7,7V199.5z"/>
</g>
<path fill="#FFFFFF" d="M776.6,117.7c0-3.8-3.1-7-7-7h-64.4v8.2c0,3.8,3.1,7,7,7H732v73.6h17.8v-73.6h26.8V117.7z"/>
<g>
	<g>
		<path fill="#FFFFFF" d="M866.5,198.8c-0.4-1.3-1.7-4.5-5.5-12.9l-0.2-0.4h-41l-0.2,0.5c-1.5,4.5-3.7,11.1-4.3,12.8h-19.2
			l32.5-87.4h18.3c2.6,0,4.9,1.6,5.8,4l32.7,83.4H866.5z M824.8,171.6H856l-15.7-45.3L824.8,171.6z"/>
	</g>
</g>
</svg>
